<svg version="1.1" id="Layer_1" xmlns="http://www.w3.org/2000/svg" xmlns:xlink="http://www.w3.org/1999/xlink" x="0px" y="0px"
	 width="100%" viewBox="0 0 376 367" enable-background="new 0 0 376 367" xml:space="preserve">
<path fill="#272627" opacity="1.000000" stroke="none"  
	d="
M1.000001,158.000000 
	C1.000000,105.666634 1.000000,53.333275 1.000000,1.000000 
	C9.101202,1.000000 17.081921,1.000000 25.540020,1.427787 
	C29.908403,23.386282 33.586193,44.959007 37.815620,66.423027 
	C39.147289,73.181137 41.958534,79.647705 44.018448,86.577377 
	C34.379494,103.704918 23.886484,119.962318 22.770515,140.320190 
	C22.110235,152.365219 19.416000,164.292786 17.809486,176.296326 
	C17.431894,179.117615 17.753611,182.032486 17.753611,184.904312 
	C18.077976,184.900909 18.402342,184.897522 18.726707,184.894119 
	C19.816437,176.594879 20.906168,168.295624 22.214695,159.730377 
	C23.249050,157.946472 24.064610,156.428604 24.951220,154.507111 
	C25.053745,152.779434 25.085222,151.455383 25.065853,150.091003 
	C25.015009,150.050674 25.108475,150.144943 25.422083,150.051025 
	C26.008490,148.689789 26.281288,147.422455 26.683199,145.867477 
	C26.557688,144.369354 26.303066,143.158890 26.071539,141.597626 
	C27.783493,137.570251 29.468493,133.891876 31.161982,130.217407 
	C35.356407,121.116508 39.554718,112.017395 44.034500,103.142960 
	C45.223457,105.114952 46.373650,106.778702 46.998432,108.620674 
	C55.490307,133.656097 65.233643,158.162888 77.202011,181.768997 
	C79.171516,185.653580 82.669540,189.816162 77.991455,194.334106 
	C77.776138,194.542068 78.296722,195.511993 78.322357,196.518250 
	C73.885254,209.881882 81.348839,231.369446 93.773102,241.539368 
	C98.643990,244.898422 103.318626,247.983276 108.280022,251.273773 
	C113.041809,252.676102 117.516846,253.872803 122.283661,255.188110 
	C123.383598,255.535797 124.191750,255.764862 125.103973,256.319916 
	C129.595871,262.685852 133.644424,269.011292 138.438919,274.709045 
	C150.095413,288.561584 161.660278,302.537415 174.097198,315.672791 
	C184.467865,326.625854 196.079727,336.398132 207.012619,346.828888 
	C209.364319,349.072540 211.161407,351.897522 213.140259,354.587891 
	C213.066559,354.721039 213.000366,355.019043 212.640564,354.995361 
	C210.908493,355.220978 209.536209,355.470276 208.127075,356.014526 
	C208.070358,356.705048 208.050507,357.100616 207.662460,357.626526 
	C206.529099,357.899963 205.763916,358.043121 204.622650,358.183228 
	C200.194992,359.615936 196.143433,361.051697 192.091873,362.487488 
	C194.021408,363.032928 195.854614,363.223816 197.636307,363.001556 
	C208.096970,361.696899 218.545578,360.295715 229.085846,359.274750 
	C230.448944,362.414917 231.724472,365.207458 233.000000,368.000000 
	C201.645767,368.000000 170.291550,368.000000 138.421295,367.645996 
	C137.440155,366.240295 137.206985,364.978638 136.474304,364.169098 
	C128.337357,355.178558 120.728905,345.571198 111.685982,337.594910 
	C106.825424,333.307678 102.650696,329.129578 99.697701,323.445190 
	C98.256462,320.670837 96.075623,318.274811 94.184769,315.740967 
	C84.949371,303.365112 75.079781,291.408936 66.590645,278.541565 
	C51.762230,256.065460 37.570545,233.171097 25.868950,208.816376 
	C19.793308,196.171051 13.063453,183.860687 8.109336,170.672714 
	C6.425666,166.190750 3.408061,162.209854 1.000001,158.000000 
z"/>
<path fill="#232323" opacity="1.000000" stroke="none" 
	d="
M1.000001,158.468658 
	C3.408061,162.209854 6.425666,166.190750 8.109336,170.672714 
	C13.063453,183.860687 19.793308,196.171051 25.868950,208.816376 
	C37.570545,233.171097 51.762230,256.065460 66.590645,278.541565 
	C75.079781,291.408936 84.949371,303.365112 94.184769,315.740967 
	C96.075623,318.274811 98.256462,320.670837 99.697701,323.445190 
	C102.650696,329.129578 106.825424,333.307678 111.685982,337.594910 
	C120.728905,345.571198 128.337357,355.178558 136.474304,364.169098 
	C137.206985,364.978638 137.440155,366.240295 137.952637,367.645996 
	C114.979103,368.000000 91.958214,368.000000 68.380135,367.659424 
	C66.806450,365.627441 65.988480,363.771606 64.743752,362.269318 
	C45.428482,338.957642 27.370674,314.738220 11.320383,289.041107 
	C8.102261,283.888733 4.451366,279.006683 1.000004,274.000000 
	C1.000000,235.645767 1.000000,197.291550 1.000001,158.468658 
z"/>
<path fill="#3C3B3B" opacity="1.000000" stroke="none" 
	d="
M311.000000,0.999999 
	C332.947571,1.000000 354.895142,1.000000 377.000000,1.000000 
	C377.000000,40.020763 377.000000,79.041725 376.673523,118.426544 
	C374.166626,117.033165 371.633331,115.571152 369.870605,113.464432 
	C364.133911,106.608246 358.447388,99.686409 353.158417,92.483711 
	C336.426544,69.697769 323.654999,44.850224 315.283203,17.816879 
	C313.574219,12.298357 312.413483,6.610046 311.000000,0.999999 
z"/>
<path fill="#393939" opacity="1.000000" stroke="none" 
	d="
M310.531342,0.999999 
	C312.413483,6.610046 313.574219,12.298357 315.283203,17.816879 
	C323.654999,44.850224 336.426544,69.697769 353.158417,92.483711 
	C358.447388,99.686409 364.133911,106.608246 369.870605,113.464432 
	C371.633331,115.571152 374.166626,117.033165 376.673523,118.895203 
	C377.000000,131.354233 377.000000,143.708450 376.644531,156.483459 
	C374.887146,156.128281 373.366821,155.507935 372.105103,154.547775 
	C368.011139,151.432266 364.011932,148.192245 359.773865,144.669510 
	C358.057159,139.222931 356.542816,134.107025 355.013367,128.602112 
	C353.565125,124.019981 352.718414,119.498749 350.589874,115.694809 
	C344.027649,103.967621 336.975861,92.514404 330.030823,80.616730 
	C319.487671,66.278481 307.754822,53.568527 292.903168,43.559425 
	C285.154022,38.220783 277.550598,33.194599 269.953308,27.731709 
	C269.258820,23.558001 268.561829,19.820316 267.856750,16.084150 
	C266.907745,11.055487 265.952545,6.027992 265.000000,0.999998 
	C280.020905,1.000000 295.041779,1.000000 310.531342,0.999999 
z"/>
<path fill="#2A2A2A" opacity="1.000000" stroke="none" 
	d="
M44.092594,86.247704 
	C41.958534,79.647705 39.147289,73.181137 37.815620,66.423027 
	C33.586193,44.959007 29.908403,23.386282 26.008699,1.427787 
	C45.687561,1.000000 65.375122,1.000000 85.579590,1.404575 
	C88.393692,13.476536 90.690895,25.143921 92.746338,37.058693 
	C87.611771,41.173946 82.718971,45.041809 77.519455,49.035599 
	C65.973572,58.784367 55.948215,69.496429 47.550190,82.079987 
	C46.215912,83.580284 45.154255,84.913994 44.092594,86.247704 
z"/>
<path fill="#2F2E2E" opacity="1.000000" stroke="none" 
	d="
M377.000000,314.000000 
	C377.000000,332.000000 377.000000,350.000000 377.000000,368.000000 
	C375.643829,368.000000 374.321869,368.000000 372.350464,367.697937 
	C370.403168,366.399445 369.216583,365.191650 367.789581,364.440796 
	C358.210022,359.400238 348.281189,354.950226 339.036133,349.364502 
	C325.673126,341.290771 312.793579,332.416840 299.862122,323.610352 
	C301.048279,322.320374 302.080048,321.304352 303.425659,320.149567 
	C311.575195,311.603882 319.410919,303.197021 327.537476,294.571289 
	C329.079437,292.571808 330.330597,290.791168 331.879333,289.127869 
	C339.066528,293.461639 345.813629,297.937225 352.883759,301.825378 
	C360.769379,306.162018 368.948578,309.964813 377.000000,314.000000 
z"/>
<path fill="#2C2B2B" opacity="1.000000" stroke="none" 
	d="
M299.707764,323.884308 
	C312.793579,332.416840 325.673126,341.290771 339.036133,349.364502 
	C348.281189,354.950226 358.210022,359.400238 367.789581,364.440796 
	C369.216583,365.191650 370.403168,366.399445 371.850494,367.697937 
	C325.979095,368.000000 279.958221,368.000000 233.468658,368.000000 
	C231.724472,365.207458 230.448944,362.414917 229.374298,359.070923 
	C231.381271,357.990936 233.187332,357.462402 235.377197,356.892822 
	C239.511139,355.569153 243.261292,354.286591 247.369080,352.892426 
	C250.767242,351.642334 253.833694,350.568115 256.843964,349.354553 
	C272.438049,343.067749 286.380280,333.991028 299.707764,323.884308 
z"/>
<path fill="#202020" opacity="1.000000" stroke="none" 
	d="
M1.000004,274.468658 
	C4.451366,279.006683 8.102261,283.888733 11.320383,289.041107 
	C27.370674,314.738220 45.428482,338.957642 64.743752,362.269318 
	C65.988480,363.771606 66.806450,365.627441 67.911476,367.659424 
	C45.727516,368.000000 23.455034,368.000000 1.000000,368.000000 
	C1.000000,336.979340 1.000000,305.958344 1.000004,274.468658 
z"/>
<path fill="#323232" opacity="1.000000" stroke="none" 
	d="
M377.000000,313.531342 
	C368.948578,309.964813 360.769379,306.162018 352.883759,301.825378 
	C345.813629,297.937225 339.066528,293.461639 331.836548,289.047913 
	C331.496155,288.850586 331.336273,288.936310 331.346680,288.908722 
	C331.357086,288.881134 331.406677,288.911194 331.743225,288.693054 
	C333.869293,285.618042 335.658844,282.761200 337.460083,279.877136 
	C337.471771,279.849884 337.528870,279.860168 337.802856,279.648193 
	C339.055054,277.625488 340.033295,275.814728 341.266113,273.781555 
	C345.967346,263.934540 350.413971,254.309967 355.140991,244.912338 
	C357.533508,246.431015 359.631653,247.746384 361.760681,249.009750 
	C366.832703,252.019577 371.919281,255.004837 377.000000,258.000000 
	C377.000000,276.354218 377.000000,294.708466 377.000000,313.531342 
z"/>
<path fill="#2F2E2E" opacity="1.000000" stroke="none" 
	d="
M92.988106,36.811302 
	C90.690895,25.143921 88.393692,13.476536 86.048248,1.404575 
	C107.020897,1.000000 128.041794,1.000000 149.539185,1.410030 
	C150.674469,5.132298 151.333237,8.444538 151.611450,11.873915 
	C147.820877,12.995371 144.410873,13.999688 140.608582,14.998571 
	C128.619186,19.887506 117.022087,24.781874 105.105118,29.780632 
	C100.852867,32.193783 96.920486,34.502541 92.988106,36.811302 
z"/>
<path fill="#363535" opacity="1.000000" stroke="none" 
	d="
M377.000000,257.531342 
	C371.919281,255.004837 366.832703,252.019577 361.760681,249.009750 
	C359.631653,247.746384 357.533508,246.431015 355.158081,244.532654 
	C359.960510,224.257675 364.512085,204.509583 364.516296,184.100510 
	C366.446991,185.292191 368.077362,186.350159 369.645020,187.494003 
	C372.118805,189.299026 374.550507,191.161713 377.000000,193.000000 
	C377.000000,214.354233 377.000000,235.708450 377.000000,257.531342 
z"/>
<path fill="#383637" opacity="1.000000" stroke="none" 
	d="
M264.531372,0.999998 
	C265.952545,6.027992 266.907745,11.055487 267.856750,16.084150 
	C268.561829,19.820316 269.258820,23.558001 269.644775,27.679657 
	C268.554413,27.775856 267.778717,27.487400 266.713928,26.989128 
	C261.300201,24.807018 256.175537,22.834726 250.875977,20.540850 
	C238.845413,16.969578 226.989731,13.719894 215.105789,10.499066 
	C215.077530,10.527922 215.082413,10.450924 214.829819,10.279814 
	C214.392776,10.022995 214.208328,9.937286 214.020187,9.411030 
	C214.011002,6.313655 214.005508,3.656828 214.000000,1.000000 
	C230.687561,1.000000 247.375122,1.000000 264.531372,0.999998 
z"/>
<path fill="#343233" opacity="1.000000" stroke="none" 
	d="
M213.531342,1.000000 
	C214.005508,3.656828 214.011002,6.313655 213.612061,9.433229 
	C201.810562,9.386513 190.413513,8.877048 178.592285,8.313636 
	C169.442749,9.425384 160.717377,10.591080 151.992020,11.756777 
	C151.333237,8.444538 150.674469,5.132298 150.007843,1.410030 
	C171.020889,1.000000 192.041794,1.000000 213.531342,1.000000 
z"/>
<path fill="#393839" opacity="1.000000" stroke="none" 
	d="
M377.000000,192.531342 
	C374.550507,191.161713 372.118805,189.299026 369.645020,187.494003 
	C368.077362,186.350159 366.446991,185.292191 364.451141,183.637177 
	C362.697113,170.385818 361.336670,157.693008 359.976227,145.000183 
	C364.011932,148.192245 368.011139,151.432266 372.105103,154.547775 
	C373.366821,155.507935 374.887146,156.128281 376.644531,156.952118 
	C377.000000,168.687561 377.000000,180.375122 377.000000,192.531342 
z"/>
<path fill="#2A2A2A" opacity="1.000000" stroke="none" 
	d="
M213.213974,354.454712 
	C211.161407,351.897522 209.364319,349.072540 207.012619,346.828888 
	C196.079727,336.398132 184.467865,326.625854 174.097198,315.672791 
	C161.660278,302.537415 150.095413,288.561584 138.438919,274.709045 
	C133.644424,269.011292 129.595871,262.685852 125.549477,256.266388 
	C129.292267,255.701950 132.693604,255.516998 136.519684,255.342422 
	C141.295746,254.231033 145.647079,253.109299 150.356003,251.929260 
	C154.853607,249.415054 158.993607,246.959122 163.424408,244.321075 
	C165.119614,243.083481 166.524017,242.027985 168.283752,241.026611 
	C170.062637,242.130722 171.745422,242.957947 172.869080,244.265640 
	C182.596573,255.586212 191.502777,267.717224 202.043594,278.210541 
	C219.318115,295.407166 237.676086,311.512848 255.470840,328.192017 
	C258.266449,330.812347 260.502350,334.029755 262.723724,336.951538 
	C260.646210,337.847778 258.842041,338.763611 257.037842,339.679443 
	C257.270447,340.117645 257.503021,340.555878 257.735596,340.994110 
	C259.848755,339.999237 261.961914,339.004364 264.320068,337.894897 
	C265.043640,337.261993 265.522278,336.743652 266.380768,336.153259 
	C268.545563,335.247986 270.280762,334.270569 272.132812,333.632050 
	C273.380157,333.201965 274.792603,333.250763 276.197601,333.443359 
	C268.807953,337.799866 261.351837,341.798309 253.502457,345.824646 
	C251.392685,346.221985 249.676208,346.591461 247.978897,346.980713 
	C247.998077,347.000549 247.971725,346.952545 247.586182,347.004547 
	C244.781982,348.247314 242.363327,349.438080 240.050842,350.290314 
	C240.198380,349.718903 240.239731,349.485992 240.361664,349.117126 
	C240.193054,348.877472 239.943863,348.773834 239.400299,348.675049 
	C238.385727,348.950104 237.665527,349.220337 236.751053,349.754333 
	C236.348679,350.635925 236.140594,351.253723 235.660187,351.939941 
	C234.898361,352.253693 234.408829,352.498993 233.707550,352.710999 
	C233.495789,352.677734 233.067169,352.686340 233.071289,352.486633 
	C233.075409,352.286896 232.944397,351.909454 232.730911,351.606659 
	C231.152832,351.543457 229.788223,351.783020 228.421906,351.963623 
	C228.420181,351.904633 228.302185,351.907898 227.885010,351.943176 
	C226.616211,352.397919 225.764587,352.817383 224.864746,353.488220 
	C224.855576,354.078125 224.894608,354.416626 224.613495,354.841888 
	C223.869507,355.048615 223.445694,355.168610 222.634827,355.299011 
	C221.515335,355.227631 220.782883,355.145844 219.929993,354.734192 
	C218.909515,354.328003 218.009476,354.251617 216.719116,354.130737 
	C215.290512,354.209045 214.252243,354.331879 213.213974,354.454712 
M250.496872,343.033264 
	C250.496872,343.033264 250.466431,343.002899 250.496872,343.033264 
M254.502029,342.453064 
	C254.502029,342.453064 254.529053,342.513611 254.502029,342.453064 
z"/>
<path fill="#29292A" opacity="1.000000" stroke="none" 
	d="
M78.474564,196.127045 
	C78.296722,195.511993 77.776138,194.542068 77.991455,194.334106 
	C82.669540,189.816162 79.171516,185.653580 77.202011,181.768997 
	C65.233643,158.162888 55.490307,133.656097 46.998432,108.620674 
	C46.373650,106.778702 45.223457,105.114952 44.114365,102.791435 
	C46.058182,98.389130 48.205177,94.563736 50.613079,90.500069 
	C57.463940,82.535896 64.053894,74.809998 70.764969,67.504364 
	C75.622696,83.076180 80.359283,98.227737 84.807358,113.537476 
	C79.524483,115.652382 76.766731,119.129372 76.950798,124.676674 
	C77.126846,129.982254 80.062279,133.479294 84.747833,135.081772 
	C87.603424,136.058395 90.901123,135.742294 94.168365,136.296844 
	C99.092598,139.244400 102.620148,142.887207 104.602692,148.122696 
	C113.178520,170.769714 126.612381,190.770569 138.903091,211.423721 
	C142.062012,216.731949 147.296631,221.699341 145.755722,229.257385 
	C142.347443,230.801651 139.184189,232.090607 135.556366,233.351349 
	C130.735535,233.190460 126.379265,233.057770 121.745804,232.711700 
	C117.728554,230.600006 113.988503,228.701691 110.056801,226.527481 
	C103.202530,219.653503 98.310478,212.310135 98.904892,202.309494 
	C99.012321,200.501999 97.768890,198.614227 97.030380,196.446442 
	C91.415215,190.048584 85.276985,190.047806 78.474564,196.127045 
z"/>
<path fill="#2B3E8E" opacity="1.000000" stroke="none" 
	d="
M78.322357,196.518250 
	C85.276985,190.047806 91.415215,190.048584 96.779495,196.765411 
	C96.098679,199.749237 95.117973,202.089386 95.076347,204.446136 
	C94.898689,214.504562 95.081406,224.569107 94.932487,234.628464 
	C94.899643,236.846893 94.050232,239.053238 93.576843,241.265137 
	C81.348839,231.369446 73.885254,209.881882 78.322357,196.518250 
z"/>
<path fill="#E32E79" opacity="1.000000" stroke="none" 
	d="
M50.352169,90.738342 
	C48.205177,94.563736 46.058182,98.389130 43.831329,102.566040 
	C39.554718,112.017395 35.356407,121.116508 31.161982,130.217407 
	C29.468493,133.891876 27.783493,137.570251 25.859400,141.843658 
	C25.111208,143.528931 24.598248,144.617371 24.085289,145.705826 
	C24.908222,145.855591 25.731153,146.005356 26.554087,146.155121 
	C26.281288,147.422455 26.008490,148.689789 25.374535,149.839478 
	C24.843224,149.479416 24.673069,149.237000 24.502911,148.994583 
	C24.322767,149.169647 24.142622,149.344727 23.962481,149.519775 
	C24.347223,149.723633 24.731964,149.927475 25.116701,150.131317 
	C25.085222,151.455383 25.053745,152.779434 24.758860,154.354980 
	C23.859447,154.513977 23.223444,154.421478 22.587437,154.328979 
	C22.390257,156.218109 22.193075,158.107239 21.995895,159.996384 
	C20.906168,168.295624 19.816437,176.594879 18.726707,184.894119 
	C18.402342,184.897522 18.077976,184.900909 17.753611,184.904312 
	C17.753611,182.032486 17.431894,179.117615 17.809486,176.296326 
	C19.416000,164.292786 22.110235,152.365219 22.770515,140.320190 
	C23.886484,119.962318 34.379494,103.704918 44.018448,86.577377 
	C45.154255,84.913994 46.215912,83.580284 47.744129,82.429688 
	C48.924515,85.321312 49.638340,88.029823 50.352169,90.738342 
z"/>
<path fill="#284695" opacity="1.000000" stroke="none" 
	d="
M93.773094,241.539368 
	C94.050232,239.053238 94.899643,236.846893 94.932487,234.628464 
	C95.081406,224.569107 94.898689,214.504562 95.076347,204.446136 
	C95.117973,202.089386 96.098679,199.749237 96.898239,197.082489 
	C97.768890,198.614227 99.012321,200.501999 98.904892,202.309494 
	C98.310478,212.310135 103.202530,219.653503 109.796555,226.837296 
	C109.155098,229.584854 108.178741,231.729904 108.087807,233.911850 
	C107.849831,239.622009 107.998634,245.348267 107.993263,251.068115 
	C103.318626,247.983276 98.643990,244.898422 93.773094,241.539368 
z"/>
<path fill="#254C99" opacity="1.000000" stroke="none" 
	d="
M108.280022,251.273773 
	C107.998634,245.348267 107.849831,239.622009 108.087807,233.911850 
	C108.178741,231.729904 109.155098,229.584854 109.988205,227.113174 
	C113.988503,228.701691 117.728554,230.600006 121.741196,233.185562 
	C122.006477,240.938370 121.999176,248.003937 121.991875,255.069504 
	C117.516846,253.872803 113.041809,252.676102 108.280022,251.273773 
z"/>
<path fill="#2254A1" opacity="1.000000" stroke="none" 
	d="
M122.283661,255.188110 
	C121.999176,248.003937 122.006477,240.938370 122.018387,233.398941 
	C126.379265,233.057770 130.735535,233.190460 135.554047,233.793732 
	C136.042511,241.286896 136.068726,248.309479 136.094940,255.332062 
	C132.693604,255.516998 129.292267,255.701950 125.445419,255.940414 
	C124.191750,255.764862 123.383598,255.535797 122.283661,255.188110 
z"/>
<path fill="#E85595" opacity="1.000000" stroke="none" 
	d="
M234.993393,356.933899 
	C233.187332,357.462402 231.381271,357.990936 229.286728,358.723297 
	C218.545578,360.295715 208.096970,361.696899 197.636307,363.001556 
	C195.854614,363.223816 194.021408,363.032928 192.091873,362.487488 
	C196.143433,361.051697 200.194992,359.615936 204.693817,358.482788 
	C206.774429,361.403625 207.552765,359.774200 208.572083,358.043243 
	C209.323181,357.970947 209.833008,357.998810 210.605820,358.042023 
	C211.221649,358.030945 211.574493,358.004486 212.092621,358.324585 
	C213.777420,358.724426 215.296906,358.777710 217.031036,358.855103 
	C217.548767,358.853516 217.800949,358.726624 218.373169,358.368835 
	C219.777267,358.094604 220.810410,357.950104 222.132721,357.686432 
	C222.625183,357.209747 222.828476,356.852264 223.150574,356.366516 
	C223.269394,356.238220 223.466095,355.949097 223.563538,355.952393 
	C223.660965,355.955688 223.855896,355.960022 224.017654,356.270081 
	C225.149857,356.255432 226.120285,355.930695 227.036530,355.364716 
	C226.982361,355.123474 226.877823,354.640167 227.018280,354.442627 
	C227.158722,354.245117 227.524246,353.926727 227.632080,354.039734 
	C227.739899,354.152740 228.017426,354.296112 228.007812,354.386932 
	C227.998199,354.477753 227.964432,354.657227 228.149292,354.985413 
	C230.526794,355.150848 232.719452,354.988068 234.937546,355.176208 
	C234.973129,355.996033 234.983261,356.464935 234.993393,356.933899 
z"/>
<path fill="#A92A5F" opacity="1.000000" stroke="none" 
	d="
M22.214691,159.730377 
	C22.193075,158.107239 22.390257,156.218109 22.587437,154.328979 
	C23.223444,154.421478 23.859447,154.513977 24.687811,154.758606 
	C24.064610,156.428604 23.249050,157.946472 22.214691,159.730377 
z"/>
<path fill="#A92A5F" opacity="1.000000" stroke="none" 
	d="
M26.683199,145.867477 
	C25.731153,146.005356 24.908222,145.855591 24.085289,145.705826 
	C24.598248,144.617371 25.111208,143.528931 25.836306,142.194443 
	C26.303066,143.158890 26.557688,144.369354 26.683199,145.867477 
z"/>
<path fill="#343233" opacity="1.000000" stroke="none" 
	d="
M210.342834,358.026642 
	C209.833008,357.998810 209.323181,357.970947 208.501419,357.879456 
	C208.189484,357.815826 208.030655,357.496216 208.030655,357.496216 
	C208.050507,357.100616 208.070358,356.705048 208.524078,356.041443 
	C210.282379,355.812592 211.606781,355.851746 213.277328,355.958069 
	C214.092468,356.002197 214.561462,355.979126 214.968826,356.163757 
	C214.907181,356.371429 214.816360,356.794952 214.454147,356.819977 
	C212.842239,357.238892 211.592529,357.632782 210.342834,358.026642 
z"/>
<path fill="#DA5991" opacity="1.000000" stroke="none" 
	d="
M207.662460,357.626526 
	C208.030655,357.496216 208.189484,357.815826 208.260147,357.979614 
	C207.552765,359.774200 206.774429,361.403625 205.069916,358.485870 
	C205.763916,358.043121 206.529099,357.899963 207.662460,357.626526 
z"/>
<path fill="#92526F" opacity="1.000000" stroke="none" 
	d="
M215.030472,355.956055 
	C214.561462,355.979126 214.092468,356.002197 213.307770,355.741180 
	C212.992065,355.457092 213.000366,355.019043 213.000366,355.019043 
	C213.000366,355.019043 213.066559,354.721039 213.140259,354.587891 
	C214.252243,354.331879 215.290512,354.209045 216.721970,354.289795 
	C217.115158,354.493317 217.109879,354.811401 216.791046,354.894287 
	C215.964874,355.327393 215.457550,355.677582 214.969345,356.008789 
	C214.988464,355.989838 215.030472,355.956085 215.030472,355.956055 
z"/>
<path fill="#ED65A1" opacity="1.000000" stroke="none" 
	d="
M212.640564,354.995361 
	C213.000366,355.019043 212.992065,355.457092 212.961639,355.674011 
	C211.606781,355.851746 210.282379,355.812592 208.560944,355.746521 
	C209.536209,355.470276 210.908493,355.220978 212.640564,354.995361 
z"/>
<path fill="#F877B1" opacity="1.000000" stroke="none" 
	d="
M330.114258,80.954742 
	C336.975861,92.514404 344.027649,103.967621 350.589874,115.694809 
	C352.718414,119.498749 353.565125,124.019981 354.702240,128.624329 
	C353.676514,129.688309 352.281555,130.384720 352.321106,130.986954 
	C352.670441,136.307236 353.033661,141.648880 353.866119,146.909317 
	C354.835724,153.036652 358.420929,159.058701 354.060760,165.226898 
	C353.980591,165.340332 354.034882,165.552353 354.034882,165.718369 
	C354.032959,177.990036 353.974487,190.262329 354.105011,202.532593 
	C354.120941,204.029694 355.152222,205.516006 355.749573,207.402725 
	C353.355072,217.756973 351.519928,227.911728 348.328888,237.620804 
	C344.987946,247.785980 340.344574,257.523071 336.044250,267.685425 
	C335.506805,268.946259 335.195587,269.968903 334.599731,271.038269 
	C333.608398,271.717163 332.901672,272.349365 331.943665,273.158325 
	C330.502441,272.858704 328.968414,272.686035 328.210938,271.827911 
	C327.292786,270.787872 327.030762,269.168671 326.618195,267.464050 
	C328.317719,264.133270 329.883881,261.138519 331.651611,257.867737 
	C338.741241,243.779282 343.245483,229.203674 345.936127,213.582062 
	C346.705109,201.099426 347.422882,189.044067 347.932098,176.979919 
	C348.067535,173.771088 347.646851,170.527130 347.335236,167.313477 
	C346.687103,160.629105 346.317078,153.888397 345.161743,147.288315 
	C342.243561,130.617599 335.797302,115.181450 327.869568,99.872093 
	C327.889709,94.377693 327.748260,89.337990 327.979462,84.315437 
	C328.032440,83.164886 329.368652,82.073402 330.114258,80.954742 
M330.964447,91.459969 
	C330.964447,91.459969 331.007721,91.463722 330.964447,91.459969 
M350.494202,126.475571 
	C350.494202,126.475571 350.505676,126.512794 350.494202,126.475571 
z"/>
<path fill="#F277AF" opacity="1.000000" stroke="none" 
	d="
M355.712921,207.007324 
	C355.152222,205.516006 354.120941,204.029694 354.105011,202.532593 
	C353.974487,190.262329 354.032959,177.990036 354.034882,165.718369 
	C354.034882,165.552353 353.980591,165.340332 354.060760,165.226898 
	C358.420929,159.058701 354.835724,153.036652 353.866119,146.909317 
	C353.033661,141.648880 352.670441,136.307236 352.321106,130.986954 
	C352.281555,130.384720 353.676514,129.688309 354.717407,129.013336 
	C356.542816,134.107025 358.057159,139.222931 359.773865,144.669510 
	C361.336670,157.693008 362.697113,170.385818 364.122681,183.541962 
	C364.512085,204.509583 359.960510,224.257675 354.877747,244.305725 
	C350.413971,254.309967 345.967346,263.934540 341.042847,273.544617 
	C339.615540,272.645020 338.666077,271.759888 337.725433,270.566437 
	C337.936432,269.488098 338.138611,268.718048 338.617218,267.678314 
	C351.360199,245.949081 356.933044,222.497574 359.057068,197.609711 
	C359.394440,189.825287 359.619720,182.448273 359.875610,174.622894 
	C359.699310,171.257050 359.492432,168.339539 359.285553,165.422028 
	C358.453857,165.521790 357.622162,165.621552 356.790466,165.721313 
	C357.044098,168.790131 357.297729,171.858963 357.601379,175.320419 
	C357.484863,183.156158 357.318390,190.599243 357.087219,198.447083 
	C356.585999,201.570328 356.149445,204.288818 355.712921,207.007324 
z"/>
<path fill="#F970AD" opacity="1.000000" stroke="none" 
	d="
M330.030823,80.616730 
	C329.368652,82.073402 328.032440,83.164886 327.979462,84.315437 
	C327.748260,89.337990 327.889709,94.377693 327.596893,99.655785 
	C317.574371,83.316673 305.864044,68.372833 291.224182,55.665474 
	C291.946564,51.519024 292.497711,47.695454 293.048859,43.871880 
	C307.754822,53.568527 319.487671,66.278481 330.030823,80.616730 
z"/>
<path fill="#F767A7" opacity="1.000000" stroke="none" 
	d="
M292.903168,43.559425 
	C292.497711,47.695454 291.946564,51.519024 290.899719,55.560463 
	C281.942719,49.828678 273.481445,43.879021 265.100708,37.580795 
	C265.424194,33.821659 269.393158,31.087631 267.002991,27.198948 
	C267.778717,27.487400 268.554413,27.775856 269.638641,28.116360 
	C277.550598,33.194599 285.154022,38.220783 292.903168,43.559425 
M287.894409,43.583412 
	C287.679901,43.684639 287.465424,43.785866 287.250916,43.887096 
	C287.333252,43.998627 287.415588,44.110157 287.497925,44.221687 
	C287.680847,44.075352 287.863800,43.929016 287.894409,43.583412 
M278.013062,37.215412 
	C278.013062,37.215412 278.320679,37.161446 278.320679,37.161446 
	C278.320679,37.161446 278.026062,37.089523 278.013062,37.215412 
M281.013458,39.215282 
	C281.013458,39.215282 281.320251,39.161423 281.320251,39.161423 
	C281.320251,39.161423 281.026428,39.089741 281.013458,39.215282 
M284.013733,41.215214 
	C284.013733,41.215214 284.320068,41.161465 284.320068,41.161465 
	C284.320068,41.161465 284.026703,41.089874 284.013733,41.215214 
z"/>
<path fill="#EB3682" opacity="1.000000" stroke="none" 
	d="
M50.613079,90.500069 
	C49.638340,88.029823 48.924515,85.321312 48.016747,82.263100 
	C55.948215,69.496429 65.973572,58.784367 77.712997,49.380749 
	C78.926155,52.120113 79.639046,54.640255 80.182449,57.454582 
	C76.889915,60.860542 73.766876,63.972321 70.643845,67.084099 
	C64.053894,74.809998 57.463940,82.535896 50.613079,90.500069 
z"/>
<path fill="#EC3C86" opacity="1.000000" stroke="none" 
	d="
M80.351944,57.160397 
	C79.639046,54.640255 78.926155,52.120113 78.019714,49.254822 
	C82.718971,45.041809 87.611771,41.173946 92.746338,37.058693 
	C96.920486,34.502541 100.852867,32.193783 105.343918,30.109293 
	C106.645439,32.573170 107.388298,34.812775 108.013199,37.374798 
	C104.468300,40.084095 101.041359,42.470974 97.284653,44.907410 
	C91.420563,49.024773 85.886253,53.092583 80.351944,57.160397 
z"/>
<path fill="#ED65A1" opacity="1.000000" stroke="none" 
	d="
M253.895737,345.796722 
	C261.351837,341.798309 268.807953,337.799866 276.188049,333.414581 
	C276.112061,333.027710 276.049103,333.033356 276.316071,333.329834 
	C278.063232,332.435455 279.543396,331.244568 281.045044,330.053223 
	C281.066528,330.052704 281.058044,330.010590 281.369263,330.246155 
	C282.721252,329.734680 283.762054,328.987610 285.112671,328.172974 
	C291.154175,323.689301 296.885773,319.273193 302.782532,315.150452 
	C303.002380,317.058655 303.057098,318.673523 303.111816,320.288361 
	C302.080048,321.304352 301.048279,322.320374 299.862122,323.610352 
	C286.380280,333.991028 272.438049,343.067749 256.843964,349.354553 
	C253.833694,350.568115 250.767242,351.642334 247.383575,352.509033 
	C247.350876,350.475708 247.661301,348.714111 247.971725,346.952545 
	C247.971725,346.952545 247.998077,347.000549 248.255432,347.159943 
	C250.774872,348.465576 253.312271,350.585052 253.895737,345.796722 
z"/>
<path fill="#EB6EA6" opacity="1.000000" stroke="none" 
	d="
M303.425659,320.149567 
	C303.057098,318.673523 303.002380,317.058655 302.970581,314.863037 
	C311.352722,306.038025 320.050446,298.095337 326.534790,288.073242 
	C326.696442,288.109558 327.027710,288.102356 327.213776,288.328766 
	C327.348785,290.633484 327.297729,292.711823 327.246643,294.790131 
	C319.410919,303.197021 311.575195,311.603882 303.425659,320.149567 
z"/>
<path fill="#F372AC" opacity="1.000000" stroke="none" 
	d="
M327.537476,294.571289 
	C327.297729,292.711823 327.348785,290.633484 327.350830,288.015625 
	C330.497986,281.959686 333.694153,276.443268 337.096222,270.902710 
	C337.302094,270.878571 337.716644,270.874756 337.716644,270.874756 
	C338.666077,271.759888 339.615540,272.645020 340.788269,273.767090 
	C340.033295,275.814728 339.055054,277.625488 337.737915,279.377380 
	C337.248932,278.947205 337.098877,278.575867 336.948822,278.204529 
	C336.819336,278.268524 336.689850,278.332520 336.560394,278.396484 
	C336.856384,278.899109 337.152405,279.401733 337.448395,279.904358 
	C335.658844,282.761200 333.869293,285.618042 331.706787,288.423218 
	C331.194153,288.002380 331.054474,287.633209 330.914795,287.264069 
	C330.828461,287.299194 330.742126,287.334320 330.655823,287.369446 
	C330.882629,287.891724 331.109467,288.414032 331.336273,288.936310 
	C331.336273,288.936310 331.496155,288.850586 331.538940,288.930542 
	C330.330597,290.791168 329.079437,292.571808 327.537476,294.571289 
z"/>
<path fill="#DA5991" opacity="1.000000" stroke="none" 
	d="
M247.586182,347.004547 
	C247.661301,348.714111 247.350876,350.475708 247.025940,352.620667 
	C243.261292,354.286591 239.511139,355.569153 235.377197,356.892792 
	C234.983261,356.464935 234.973129,355.996033 234.814819,354.988831 
	C234.458420,354.234192 234.229996,354.041840 233.965759,353.591187 
	C233.939880,353.120728 233.929596,352.932526 233.919296,352.744293 
	C234.408829,352.498993 234.898361,352.253693 235.966492,351.954590 
	C237.096252,351.656464 237.647385,351.412109 238.428802,351.138367 
	C239.087616,350.948914 239.516144,350.788879 239.944672,350.628845 
	C242.363327,349.438080 244.781982,348.247314 247.586182,347.004547 
z"/>
<path fill="#EB6EA6" opacity="1.000000" stroke="none" 
	d="
M331.346680,288.908722 
	C331.109467,288.414032 330.882629,287.891724 330.655823,287.369446 
	C330.742126,287.334320 330.828461,287.299194 330.914795,287.264069 
	C331.054474,287.633209 331.194153,288.002380 331.370239,288.641357 
	C331.406677,288.911194 331.357086,288.881134 331.346680,288.908722 
z"/>
<path fill="#ED4C90" opacity="1.000000" stroke="none" 
	d="
M151.611450,11.873915 
	C160.717377,10.591080 169.442749,9.425384 178.589935,8.729170 
	C179.016632,11.960214 179.021515,14.721772 178.593002,17.519194 
	C175.391739,17.865576 172.623871,18.176096 169.437378,18.523819 
	C160.012619,20.332180 151.006470,22.103336 141.999908,23.454580 
	C141.666626,20.357780 141.333755,17.680893 141.000885,15.004005 
	C144.410873,13.999688 147.820877,12.995371 151.611450,11.873915 
z"/>
<path fill="#EE448C" opacity="1.000000" stroke="none" 
	d="
M140.608582,14.998571 
	C141.333755,17.680893 141.666626,20.357780 141.662354,23.603088 
	C137.548752,25.524200 133.772278,26.876894 129.647385,28.272638 
	C127.478951,29.048668 125.652626,29.766417 123.840118,30.517502 
	C118.600822,32.688606 113.367081,34.873127 108.131157,37.052383 
	C107.388298,34.812775 106.645439,32.573170 105.663788,30.004902 
	C117.022087,24.781874 128.619186,19.887506 140.608582,14.998571 
z"/>
<path fill="#F55EA0" opacity="1.000000" stroke="none" 
	d="
M215.134048,10.470211 
	C226.989731,13.719894 238.845413,16.969578 250.944885,20.915829 
	C251.131927,24.719328 251.075211,27.826260 250.646301,30.904449 
	C240.849167,27.937050 231.424194,24.998398 221.678101,21.898064 
	C219.535980,21.263624 217.714966,20.790865 215.946335,19.927513 
	C215.663620,17.018450 215.328537,14.499981 215.027893,11.603620 
	C215.086243,10.973888 215.110138,10.722050 215.134048,10.470211 
M228.253632,15.373622 
	C228.197342,15.374542 228.141052,15.375462 228.253632,15.373622 
z"/>
<path fill="#F35599" opacity="1.000000" stroke="none" 
	d="
M214.993469,11.981511 
	C215.328537,14.499981 215.663620,17.018450 215.512543,19.913883 
	C203.026382,19.355009 191.026382,18.419170 179.026398,17.483332 
	C179.021515,14.721772 179.016632,11.960214 179.014099,8.783119 
	C190.413513,8.877048 201.810562,9.386513 213.615738,9.873777 
	C214.208328,9.937286 214.392776,10.022995 214.687836,10.420484 
	C214.724335,10.875345 214.560257,11.045561 214.593628,11.156221 
	C214.680771,11.445229 214.854355,11.708176 214.993469,11.981511 
z"/>
<path fill="#F264A3" opacity="1.000000" stroke="none" 
	d="
M251.018478,30.933195 
	C251.075211,27.826260 251.131927,24.719328 251.119751,21.237415 
	C256.175537,22.834726 261.300201,24.807018 266.713928,26.989130 
	C269.393158,31.087631 265.424194,33.821659 264.753540,37.520424 
	C259.890076,35.516815 255.454269,33.225006 251.018478,30.933195 
z"/>
<path fill="#E65A97" opacity="1.000000" stroke="none" 
	d="
M215.027893,11.603620 
	C214.854355,11.708176 214.680771,11.445229 214.593628,11.156221 
	C214.560257,11.045561 214.724335,10.875345 214.940430,10.591594 
	C215.082413,10.450924 215.077530,10.527922 215.105789,10.499065 
	C215.110138,10.722050 215.086243,10.973888 215.027893,11.603620 
z"/>
<path fill="#2C2C2D" opacity="1.000000" stroke="none" 
	d="
M262.997040,336.971100 
	C260.502350,334.029755 258.266449,330.812347 255.470840,328.192017 
	C237.676086,311.512848 219.318115,295.407166 202.043594,278.210541 
	C191.502777,267.717224 182.596573,255.586212 172.869080,244.265640 
	C171.745422,242.957947 170.062637,242.130722 168.435852,240.733032 
	C169.834961,238.291794 171.437286,236.198242 173.313690,233.900970 
	C176.725830,225.933655 181.060913,218.410278 182.680206,210.341873 
	C184.456558,201.490891 183.728760,192.137344 184.385086,183.149261 
	C187.612808,185.865341 190.547623,188.434967 193.546173,191.469055 
	C193.645203,209.013626 193.634552,226.093994 193.737610,243.173691 
	C193.780807,250.335342 196.129211,253.371216 203.235580,255.661102 
	C209.426346,255.846878 215.214676,255.911163 221.427643,256.045288 
	C223.567368,256.217499 225.282440,256.319824 227.053726,256.749268 
	C227.867783,258.339600 228.388596,259.853577 229.419449,260.828094 
	C242.584000,273.273346 255.683075,285.793976 269.097473,297.966309 
	C276.097809,304.318451 283.685913,310.022797 290.859314,316.332428 
	C282.882263,322.053375 275.019470,327.412781 267.279083,332.943451 
	C266.479553,333.514740 266.409454,335.106873 266.000916,336.225342 
	C265.522278,336.743652 265.043640,337.261993 264.146973,337.714294 
	C263.494720,337.411987 263.250763,337.186249 262.997040,336.971100 
z"/>
<path fill="#1B68B3" opacity="1.000000" stroke="none" 
	d="
M173.039612,234.104675 
	C171.437286,236.198242 169.834961,238.291794 168.080521,240.678909 
	C166.524017,242.027985 165.119614,243.083481 163.386047,243.880066 
	C162.863708,238.331940 162.760727,233.037521 162.454498,227.754883 
	C162.072601,221.166672 161.523209,214.588165 161.060730,207.536469 
	C161.051941,183.377625 161.028595,159.687790 161.198929,135.692535 
	C161.770935,133.341766 162.364487,131.308990 162.484909,129.248596 
	C162.778854,124.218964 162.853775,119.176521 163.464294,114.094307 
	C166.609406,114.086098 169.307129,114.122826 172.003967,114.618217 
	C172.002106,151.463257 171.974472,187.849670 172.045395,224.235916 
	C172.051819,227.526138 172.693130,230.815125 173.039612,234.104675 
z"/>
<path fill="#1D60A8" opacity="1.000000" stroke="none" 
	d="
M161.046143,208.005478 
	C161.523209,214.588165 162.072601,221.166672 162.454498,227.754883 
	C162.760727,233.037521 162.863708,238.331940 163.095245,244.062164 
	C158.993607,246.959122 154.853607,249.415054 150.261917,251.523117 
	C149.511322,243.361603 149.212418,235.547958 149.109161,227.477509 
	C155.493820,222.205887 159.090622,215.607117 161.046143,208.005478 
z"/>
<path fill="#1F5BA7" opacity="1.000000" stroke="none" 
	d="
M148.913513,227.734314 
	C149.212418,235.547958 149.511322,243.361603 149.904312,251.581390 
	C145.647079,253.109299 141.295746,254.231033 136.519684,255.342407 
	C136.068726,248.309479 136.042511,241.286896 136.018616,233.821945 
	C139.184189,232.090607 142.347443,230.801651 146.064392,229.176056 
	C147.383224,228.471069 148.148376,228.102707 148.913513,227.734314 
z"/>
<path fill="#E6629C" opacity="1.000000" stroke="none" 
	d="
M266.380768,336.153259 
	C266.409454,335.106873 266.479553,333.514740 267.279083,332.943451 
	C275.019470,327.412781 282.882263,322.053375 291.126801,316.227814 
	C292.006287,315.482269 292.469147,315.153992 293.047913,315.130981 
	C293.446350,316.259552 293.728790,317.082855 293.704163,318.051483 
	C289.536652,321.436768 285.676270,324.676727 281.411743,328.105225 
	C281.024414,328.865997 281.041229,329.438293 281.058044,330.010590 
	C281.058044,330.010590 281.066528,330.052704 280.876190,329.606018 
	C279.140289,330.450684 277.594696,331.742035 276.049103,333.033356 
	C276.049103,333.033356 276.112061,333.027710 276.121613,333.056519 
	C274.792603,333.250763 273.380157,333.201965 272.132812,333.632050 
	C270.280762,334.270569 268.545563,335.247986 266.380768,336.153259 
z"/>
<path fill="#403338" opacity="1.000000" stroke="none" 
	d="
M262.723724,336.951538 
	C263.250763,337.186249 263.494720,337.411987 263.901978,337.828888 
	C261.961914,339.004364 259.848755,339.999237 257.735596,340.994110 
	C257.503021,340.555878 257.270447,340.117645 257.037842,339.679443 
	C258.842041,338.763611 260.646210,337.847778 262.723724,336.951538 
z"/>
<path fill="#DA5991" opacity="1.000000" stroke="none" 
	d="
M253.502457,345.824646 
	C253.312271,350.585052 250.774872,348.465576 248.236237,347.140137 
	C249.676208,346.591461 251.392685,346.221985 253.502457,345.824646 
z"/>
<path fill="#563745" opacity="1.000000" stroke="none" 
	d="
M228.017426,354.296143 
	C228.017426,354.296112 227.739899,354.152740 227.544907,354.217499 
	C227.122910,354.504456 226.896683,354.504913 226.255280,354.469513 
	C225.537415,354.688629 225.235519,354.721893 224.933640,354.755157 
	C224.894608,354.416626 224.855576,354.078125 225.228577,353.358398 
	C226.527802,352.620758 227.414993,352.264313 228.302185,351.907898 
	C228.302185,351.907898 228.420181,351.904633 228.873230,351.928284 
	C230.532303,351.937744 231.738358,351.923584 232.944397,351.909424 
	C232.944397,351.909454 233.075409,352.286896 232.781586,352.636169 
	C231.977386,353.326721 231.466980,353.667969 230.996155,354.017578 
	C231.035721,354.025879 231.052628,353.946808 230.668839,353.913818 
	C229.529175,354.019257 228.773300,354.157684 228.017426,354.296143 
z"/>
<path fill="#DA5991" opacity="1.000000" stroke="none" 
	d="
M223.466095,355.949097 
	C223.466095,355.949097 223.269394,356.238220 222.866638,356.495026 
	C222.285782,356.858856 222.107712,356.965912 221.548065,357.051483 
	C220.149765,357.061737 219.133072,357.093445 217.949188,356.973724 
	C217.541580,356.640808 217.316620,356.441803 217.463989,356.159119 
	C218.568588,355.701477 219.316330,355.309937 220.093536,354.957886 
	C220.123001,354.997375 220.050430,355.064026 220.050430,355.064026 
	C220.782883,355.145844 221.515335,355.227631 222.743164,355.465973 
	C223.238525,355.622498 223.466095,355.949097 223.466095,355.949097 
z"/>
<path fill="#563745" opacity="1.000000" stroke="none" 
	d="
M240.050858,350.290344 
	C239.516144,350.788879 239.087616,350.948914 238.181274,350.889709 
	C237.450760,350.277161 237.198044,349.883850 236.945328,349.490540 
	C237.665527,349.220337 238.385727,348.950104 239.546692,348.820984 
	C239.987473,348.962067 240.281082,349.253113 240.281082,349.253113 
	C240.239731,349.485992 240.198380,349.718903 240.050858,350.290344 
z"/>
<path fill="#E65A97" opacity="1.000000" stroke="none" 
	d="
M223.563538,355.952393 
	C223.466095,355.949097 223.238525,355.622498 223.130188,355.455566 
	C223.445694,355.168610 223.869507,355.048615 224.613495,354.841888 
	C225.235519,354.721893 225.537415,354.688629 226.329254,354.541443 
	C226.819168,354.427521 226.877823,354.640167 226.877823,354.640167 
	C226.877823,354.640167 226.982361,355.123474 226.650650,355.509583 
	C225.497925,355.917114 224.676910,355.938568 223.855896,355.960022 
	C223.855896,355.960022 223.660965,355.955688 223.563538,355.952393 
z"/>
<path fill="#EB6EA6" opacity="1.000000" stroke="none" 
	d="
M232.730911,351.606628 
	C231.738358,351.923584 230.532303,351.937744 228.874939,351.987244 
	C229.788223,351.783020 231.152832,351.543457 232.730911,351.606628 
z"/>
<path fill="#E6629C" opacity="1.000000" stroke="none" 
	d="
M217.109879,354.811401 
	C217.109879,354.811401 217.115158,354.493317 217.112305,354.334290 
	C218.009476,354.251617 218.909515,354.328003 219.929993,354.734192 
	C220.050430,355.064026 220.123001,354.997375 219.722717,354.979065 
	C218.584900,354.910980 217.847397,354.861176 217.109879,354.811401 
z"/>
<path fill="#E65A97" opacity="1.000000" stroke="none" 
	d="
M230.956589,354.009247 
	C231.466980,353.667969 231.977386,353.326721 232.777466,352.835876 
	C233.067169,352.686340 233.495789,352.677734 233.707550,352.710999 
	C233.929596,352.932526 233.939880,353.120728 233.588043,353.616455 
	C232.469467,353.952393 231.713028,353.980804 230.956589,354.009247 
z"/>
<path fill="#F970AD" opacity="1.000000" stroke="none" 
	d="
M227.885010,351.943176 
	C227.414993,352.264313 226.527802,352.620758 225.276794,353.107025 
	C225.764587,352.817383 226.616211,352.397919 227.885010,351.943176 
z"/>
<path fill="#6C3F53" opacity="1.000000" stroke="none" 
	d="
M236.751053,349.754333 
	C237.198044,349.883850 237.450760,350.277161 237.950989,350.919098 
	C237.647385,351.412109 237.096252,351.656464 236.238815,351.886169 
	C236.140594,351.253723 236.348679,350.635925 236.751053,349.754333 
z"/>
<path fill="#403338" opacity="1.000000" stroke="none" 
	d="
M250.481659,343.018066 
	C250.466431,343.002899 250.496872,343.033264 250.481659,343.018066 
z"/>
<path fill="#403338" opacity="1.000000" stroke="none" 
	d="
M254.515533,342.483337 
	C254.529053,342.513611 254.502029,342.453064 254.515533,342.483337 
z"/>
<path fill="#563745" opacity="1.000000" stroke="none" 
	d="
M239.841064,348.816132 
	C239.943863,348.773834 240.193054,348.877472 240.361664,349.117126 
	C240.281082,349.253113 239.987473,348.962067 239.841064,348.816132 
z"/>
<path fill="#2C2C2C" opacity="1.000000" stroke="none" 
	d="
M149.109161,227.477524 
	C148.148376,228.102707 147.383224,228.471069 146.309418,228.920776 
	C147.296631,221.699341 142.062012,216.731949 138.903091,211.423721 
	C126.612381,190.770569 113.178520,170.769714 104.602692,148.122696 
	C102.620148,142.887207 99.092598,139.244400 94.432465,136.152298 
	C94.703285,135.619125 94.878113,135.520523 95.510231,135.504028 
	C100.667458,135.513809 105.367393,135.441498 110.521523,135.455017 
	C115.674301,135.479614 120.372879,135.418350 125.525711,135.446442 
	C130.991348,135.475494 136.002731,135.415192 141.463440,135.452103 
	C145.513153,135.503891 149.113541,135.458496 153.168915,135.504593 
	C156.084351,135.730042 158.544800,135.863998 161.005234,135.997955 
	C161.028595,159.687790 161.051941,183.377625 161.060730,207.536469 
	C159.090622,215.607117 155.493820,222.205887 149.109161,227.477524 
z"/>
<path fill="#2C2C2C" opacity="1.000000" stroke="none" 
	d="
M80.182449,57.454582 
	C85.886253,53.092583 91.420563,49.024773 97.639458,45.034470 
	C99.857773,48.048061 101.606735,50.897087 102.843010,53.953491 
	C103.563187,55.733948 103.189812,57.932186 103.775574,59.795616 
	C107.157875,70.555519 110.665985,81.276031 114.158707,92.001022 
	C116.413231,98.923920 118.714333,105.831650 120.540131,112.805130 
	C116.729126,112.963135 113.372543,113.062202 109.551941,113.101028 
	C104.400116,113.072601 99.712303,113.104424 94.573257,113.080750 
	C91.113297,113.143272 88.104584,113.261284 85.095871,113.379295 
	C80.359283,98.227737 75.622696,83.076180 70.764969,67.504364 
	C73.766876,63.972321 76.889915,60.860542 80.182449,57.454582 
z"/>
<path fill="#2A3E89" opacity="1.000000" stroke="none" 
	d="
M84.807358,113.537476 
	C88.104584,113.261284 91.113297,113.143272 94.567596,113.538773 
	C95.026436,121.175499 95.039680,128.298721 95.052933,135.421936 
	C94.878113,135.520523 94.703285,135.619125 94.264343,135.862274 
	C90.901123,135.742294 87.603424,136.058395 84.747833,135.081772 
	C80.062279,133.479294 77.126846,129.982254 76.950798,124.676674 
	C76.766731,119.129372 79.524483,115.652382 84.807358,113.537476 
z"/>
<path fill="#A92A5F" opacity="1.000000" stroke="none" 
	d="
M25.065857,150.091003 
	C24.731964,149.927475 24.347223,149.723633 23.962481,149.519775 
	C24.142622,149.344727 24.322767,149.169647 24.502911,148.994583 
	C24.673069,149.237000 24.843224,149.479416 25.060926,149.933380 
	C25.108475,150.144943 25.015009,150.050674 25.065857,150.091003 
z"/>
<path fill="#9D446B" opacity="1.000000" stroke="none" 
	d="
M230.996155,354.017578 
	C231.713028,353.980804 232.469467,353.952393 233.603638,353.898743 
	C234.229996,354.041840 234.458420,354.234192 234.789383,354.637909 
	C232.719452,354.988068 230.526794,355.150848 228.476486,355.041718 
	C229.430099,354.495453 230.241364,354.221130 231.052628,353.946808 
	C231.052628,353.946808 231.035721,354.025879 230.996155,354.017578 
z"/>
<path fill="#DA5991" opacity="1.000000" stroke="none" 
	d="
M210.605820,358.042023 
	C211.592529,357.632782 212.842239,357.238892 214.640869,356.996979 
	C215.428879,357.393341 215.667938,357.637695 215.509827,357.917419 
	C214.050858,357.961151 212.989105,357.969604 211.927338,357.978058 
	C211.574493,358.004486 211.221649,358.030945 210.605820,358.042023 
z"/>
<path fill="#403338" opacity="1.000000" stroke="none" 
	d="
M212.092621,358.324585 
	C212.989105,357.969604 214.050858,357.961151 215.670471,358.069092 
	C216.486130,358.344391 216.682144,358.559570 216.816406,358.830994 
	C215.296906,358.777710 213.777420,358.724426 212.092621,358.324585 
z"/>
<path fill="#9D446B" opacity="1.000000" stroke="none" 
	d="
M217.031036,358.855103 
	C216.682144,358.559570 216.486130,358.344391 216.067673,358.033752 
	C215.667938,357.637695 215.428879,357.393341 215.003082,356.971954 
	C214.816360,356.794952 214.907181,356.371429 214.968826,356.163757 
	C215.030472,355.956085 214.988464,355.989838 215.330170,356.031433 
	C216.150299,356.123749 216.628723,356.174500 217.107147,356.225250 
	C217.316620,356.441803 217.541580,356.640808 217.935471,357.318268 
	C218.060013,358.042328 218.031113,358.270416 218.002197,358.498535 
	C217.800949,358.726624 217.548767,358.853516 217.031036,358.855103 
z"/>
<path fill="#563745" opacity="1.000000" stroke="none" 
	d="
M218.373169,358.368835 
	C218.031113,358.270416 218.060013,358.042328 218.102646,357.469666 
	C219.133072,357.093445 220.149765,357.061737 221.523224,357.234253 
	C221.879974,357.438477 221.843552,357.805634 221.843552,357.805634 
	C220.810410,357.950104 219.777267,358.094604 218.373169,358.368835 
z"/>
<path fill="#F35599" opacity="1.000000" stroke="none" 
	d="
M230.668839,353.913818 
	C230.241364,354.221130 229.430099,354.495453 228.291626,354.713501 
	C227.964432,354.657227 227.998199,354.477753 228.007812,354.386963 
	C228.773300,354.157684 229.529175,354.019257 230.668839,353.913818 
z"/>
<path fill="#563745" opacity="1.000000" stroke="none" 
	d="
M224.017654,356.270081 
	C224.676910,355.938568 225.497925,355.917114 226.704834,355.750793 
	C226.120285,355.930695 225.149857,356.255432 224.017654,356.270081 
z"/>
<path fill="#9D446B" opacity="1.000000" stroke="none" 
	d="
M222.132721,357.686432 
	C221.843552,357.805634 221.879974,357.438477 221.904816,357.255707 
	C222.107712,356.965912 222.285782,356.858856 222.747818,356.623291 
	C222.828476,356.852264 222.625183,357.209747 222.132721,357.686432 
z"/>
<path fill="#2A2A2A" opacity="1.000000" stroke="none" 
	d="
M227.018280,354.442627 
	C226.877823,354.640167 226.819168,354.427521 226.745209,354.355591 
	C226.896683,354.504913 227.122910,354.504456 227.437073,354.104492 
	C227.524246,353.926727 227.158722,354.245117 227.018280,354.442627 
z"/>
<path fill="#2F2E2E" opacity="1.000000" stroke="none" 
	d="
M217.463989,356.159119 
	C216.628723,356.174500 216.150299,356.123749 215.311050,356.050385 
	C215.457550,355.677582 215.964874,355.327393 216.791046,354.894287 
	C217.847397,354.861176 218.584900,354.910980 219.693237,354.939575 
	C219.316330,355.309937 218.568588,355.701477 217.463989,356.159119 
z"/>
<path fill="#333333" opacity="1.000000" stroke="none" 
	d="
M178.593002,17.519194 
	C191.026382,18.419170 203.026382,19.355009 215.460175,20.304478 
	C217.714966,20.790865 219.535980,21.263624 221.685974,22.307602 
	C222.320511,24.674889 222.384995,26.553734 222.968948,28.254198 
	C228.733231,45.039749 233.410004,62.328438 240.714737,78.421608 
	C249.329422,97.400795 259.523132,115.775803 270.399780,133.577194 
	C277.973969,145.973618 287.897827,156.927689 296.688019,168.589432 
	C309.163239,185.140015 324.365112,198.926895 340.432739,211.823929 
	C341.877258,212.983414 343.999359,213.298721 345.806793,214.006058 
	C343.245483,229.203674 338.741241,243.779282 331.229248,257.840424 
	C328.459259,257.360138 325.862518,257.168091 324.244537,255.809998 
	C316.922363,249.663849 309.765625,243.306580 302.796112,236.762436 
	C300.567169,234.669525 298.612671,233.676300 295.495514,234.939240 
	C291.119171,230.905396 287.045471,227.000366 282.828796,222.785812 
	C279.557648,219.426773 276.429413,216.377274 273.137939,213.057541 
	C268.288696,208.202347 263.602722,203.617371 258.769348,198.735199 
	C255.371994,196.122238 252.122055,193.806488 248.850891,191.102310 
	C248.054443,188.918640 247.544632,186.942093 246.461884,185.356873 
	C237.981323,172.940781 229.432770,160.570282 220.784760,148.270401 
	C219.620178,146.614014 217.784180,145.429703 216.179398,143.624481 
	C216.053802,136.741165 216.208481,130.250916 215.909180,123.781647 
	C215.565369,116.350525 209.164169,111.995575 201.764893,113.961746 
	C201.335434,113.877960 201.163712,113.844147 200.972260,113.431297 
	C198.109634,105.980904 195.312408,98.890778 192.415497,91.841621 
	C182.650040,68.078888 174.809021,43.727722 169.856003,18.486616 
	C172.623871,18.176096 175.391739,17.865576 178.593002,17.519194 
z"/>
<path fill="#373636" opacity="1.000000" stroke="none" 
	d="
M345.936127,213.582062 
	C343.999359,213.298721 341.877258,212.983414 340.432739,211.823929 
	C324.365112,198.926895 309.163239,185.140015 296.688019,168.589432 
	C287.897827,156.927689 277.973969,145.973618 270.399780,133.577194 
	C259.523132,115.775803 249.329422,97.400795 240.714737,78.421608 
	C233.410004,62.328438 228.733231,45.039749 222.968948,28.254198 
	C222.384995,26.553734 222.320511,24.674889 222.007095,22.469284 
	C231.424194,24.998398 240.849167,27.937050 250.646301,30.904449 
	C255.454269,33.225006 259.890076,35.516815 264.673035,37.868996 
	C273.481445,43.879021 281.942719,49.828678 290.728455,55.883347 
	C305.864044,68.372833 317.574371,83.316673 327.570587,100.116707 
	C335.797302,115.181450 342.243561,130.617599 345.161743,147.288315 
	C346.317078,153.888397 346.687103,160.629105 347.335236,167.313477 
	C347.646851,170.527130 348.067535,173.771088 347.932098,176.979919 
	C347.422882,189.044067 346.705109,201.099426 345.936127,213.582062 
z"/>
<path fill="#303133" opacity="1.000000" stroke="none" 
	d="
M295.798157,235.068054 
	C298.612671,233.676300 300.567169,234.669525 302.796112,236.762436 
	C309.765625,243.306580 316.922363,249.663849 324.244537,255.809998 
	C325.862518,257.168091 328.459259,257.360138 331.027649,258.116455 
	C329.883881,261.138519 328.317719,264.133270 326.389526,267.692657 
	C320.792419,275.709167 315.557312,283.161072 310.121307,290.293213 
	C303.275574,284.311890 296.433502,278.862579 290.045227,272.925049 
	C284.430786,267.706757 279.324493,261.941742 274.437317,256.330444 
	C277.587769,256.148346 280.294647,256.053986 283.445801,256.042084 
	C286.037964,256.070343 288.201752,256.163971 290.330963,255.935486 
	C298.239258,255.086868 302.761230,247.409378 299.442352,240.336349 
	C298.547852,238.429977 297.029938,236.816162 295.798157,235.068054 
z"/>
<path fill="#F16EA9" opacity="1.000000" stroke="none" 
	d="
M310.322205,290.612976 
	C315.557312,283.161072 320.792419,275.709167 326.256165,268.028687 
	C327.030762,269.168671 327.292786,270.787872 328.210938,271.827911 
	C328.968414,272.686035 330.502441,272.858704 332.031036,273.433838 
	C329.909271,277.984253 327.448822,282.435974 324.668884,287.009918 
	C314.236694,297.390167 304.123993,307.648163 294.011261,317.906158 
	C293.728790,317.082855 293.446350,316.259552 293.214081,314.844360 
	C298.157501,309.636749 303.179962,305.147400 307.878448,300.341278 
	C309.685944,298.492401 313.557678,296.397949 309.173981,293.095337 
	C309.020477,292.979706 309.915771,291.471924 310.322205,290.612976 
z"/>
<path fill="#523F47" opacity="1.000000" stroke="none" 
	d="
M355.749573,207.402725 
	C356.149445,204.288818 356.585999,201.570328 357.385895,198.429184 
	C358.147827,198.010056 358.546387,198.013565 358.944977,198.017090 
	C356.933044,222.497574 351.360199,245.949081 338.402679,267.662048 
	C337.364624,267.759430 336.817566,267.603333 336.270477,267.447266 
	C340.344574,257.523071 344.987946,247.785980 348.328888,237.620804 
	C351.519928,227.911728 353.355072,217.756973 355.749573,207.402725 
z"/>
<path fill="#92526F" opacity="1.000000" stroke="none" 
	d="
M324.988373,286.887665 
	C327.448822,282.435974 329.909271,277.984253 332.282349,273.257080 
	C332.901672,272.349365 333.608398,271.717163 334.932068,270.984314 
	C335.996155,270.898010 336.443237,270.912415 336.890350,270.926819 
	C333.694153,276.443268 330.497986,281.959686 327.164734,287.789246 
	C327.027710,288.102356 326.696442,288.109558 326.272278,287.921570 
	C325.561523,287.451599 325.274963,287.169647 324.988373,286.887665 
z"/>
<path fill="#5B404C" opacity="1.000000" stroke="none" 
	d="
M337.096222,270.902710 
	C336.443237,270.912415 335.996155,270.898010 335.216675,270.937561 
	C335.195587,269.968903 335.506805,268.946259 336.044250,267.685425 
	C336.817566,267.603333 337.364624,267.759430 338.126251,267.931763 
	C338.138611,268.718048 337.936432,269.488098 337.725433,270.566437 
	C337.716644,270.874756 337.302094,270.878571 337.096222,270.902710 
z"/>
<path fill="#F970AD" opacity="1.000000" stroke="none" 
	d="
M330.986084,91.461845 
	C331.007721,91.463722 330.964447,91.459969 330.986084,91.461845 
z"/>
<path fill="#F277AF" opacity="1.000000" stroke="none" 
	d="
M350.499939,126.494186 
	C350.505676,126.512794 350.494202,126.475571 350.499939,126.494186 
z"/>
<path fill="#734B5D" opacity="1.000000" stroke="none" 
	d="
M359.057068,197.609695 
	C358.546387,198.013565 358.147827,198.010056 357.450562,198.024445 
	C357.318390,190.599243 357.484863,183.156158 357.984924,175.348083 
	C358.827332,175.012497 359.336151,175.041870 359.845032,175.071243 
	C359.619720,182.448273 359.394440,189.825287 359.057068,197.609695 
z"/>
<path fill="#9C5A77" opacity="1.000000" stroke="none" 
	d="
M359.875610,174.622894 
	C359.336151,175.041870 358.827332,175.012497 357.934937,174.955444 
	C357.297729,171.858963 357.044098,168.790131 356.790466,165.721313 
	C357.622162,165.621552 358.453857,165.521790 359.285553,165.422028 
	C359.492432,168.339539 359.699310,171.257050 359.875610,174.622894 
z"/>
<path fill="#F264A3" opacity="1.000000" stroke="none" 
	d="
M287.970581,43.683044 
	C287.863800,43.929016 287.680847,44.075352 287.497925,44.221687 
	C287.415588,44.110157 287.333252,43.998627 287.250916,43.887093 
	C287.465424,43.785866 287.679901,43.684639 287.970581,43.683044 
z"/>
<path fill="#F264A3" opacity="1.000000" stroke="none" 
	d="
M278.019562,37.152466 
	C278.026062,37.089523 278.320679,37.161446 278.320679,37.161446 
	C278.320679,37.161446 278.013062,37.215412 278.019562,37.152466 
z"/>
<path fill="#F264A3" opacity="1.000000" stroke="none" 
	d="
M281.019958,39.152512 
	C281.026428,39.089741 281.320251,39.161423 281.320251,39.161423 
	C281.320251,39.161423 281.013458,39.215282 281.019958,39.152512 
z"/>
<path fill="#F264A3" opacity="1.000000" stroke="none" 
	d="
M284.020203,41.152542 
	C284.026703,41.089874 284.320068,41.161465 284.320068,41.161465 
	C284.320068,41.161465 284.013733,41.215214 284.020203,41.152542 
z"/>
<path fill="#2E2E2E" opacity="1.000000" stroke="none" 
	d="
M120.994560,112.746178 
	C118.714333,105.831650 116.413231,98.923920 114.158707,92.001022 
	C110.665985,81.276031 107.157875,70.555519 103.775574,59.795616 
	C103.189812,57.932186 103.563187,55.733948 102.843010,53.953491 
	C101.606735,50.897087 99.857773,48.048061 97.969238,44.984917 
	C101.041359,42.470974 104.468300,40.084095 108.013199,37.374802 
	C113.367081,34.873127 118.600822,32.688606 123.840118,30.517502 
	C125.652626,29.766417 127.478951,29.048668 129.669983,28.662712 
	C133.110779,40.809799 135.853622,52.707500 139.340256,64.383087 
	C142.989975,76.604843 147.367020,88.608955 151.398651,100.717354 
	C152.642639,104.453529 153.796494,108.219711 154.989868,112.243965 
	C154.990509,112.696762 154.992920,112.877747 154.620407,113.029709 
	C153.497025,113.053505 152.748581,113.106316 151.545471,113.098724 
	C147.731659,113.083305 144.372498,113.128296 140.550323,113.108017 
	C135.394424,113.086540 130.701538,113.130341 125.593796,113.110016 
	C123.784142,112.945984 122.389351,112.846077 120.994560,112.746178 
z"/>
<path fill="#403338" opacity="1.000000" stroke="none" 
	d="
M324.668884,287.009918 
	C325.274963,287.169647 325.561523,287.451599 326.110626,287.885254 
	C320.050446,298.095337 311.352722,306.038025 302.805450,314.569702 
	C296.885773,319.273193 291.154175,323.689301 284.613342,328.109009 
	C283.141357,328.047302 282.478638,327.981995 281.815918,327.916687 
	C285.676270,324.676727 289.536652,321.436768 293.704163,318.051483 
	C304.123993,307.648163 314.236694,297.390167 324.668884,287.009918 
z"/>
<path fill="#2A2A2A" opacity="1.000000" stroke="none" 
	d="
M276.316071,333.329834 
	C277.594696,331.742035 279.140289,330.450684 280.854736,329.606506 
	C279.543396,331.244568 278.063232,332.435455 276.316071,333.329834 
z"/>
<path fill="#2A2A2A" opacity="1.000000" stroke="none" 
	d="
M281.411743,328.105194 
	C282.478638,327.981995 283.141357,328.047302 284.303467,328.176575 
	C283.762054,328.987610 282.721252,329.734680 281.369263,330.246155 
	C281.041229,329.438293 281.024414,328.865997 281.411743,328.105194 
z"/>
<path fill="#EB6EA6" opacity="1.000000" stroke="none" 
	d="
M337.460083,279.877136 
	C337.152405,279.401733 336.856384,278.899109 336.560394,278.396484 
	C336.689850,278.332520 336.819336,278.268524 336.948822,278.204529 
	C337.098877,278.575867 337.248932,278.947205 337.463928,279.589355 
	C337.528870,279.860168 337.471771,279.849884 337.460083,279.877136 
z"/>
<path fill="#303030" opacity="1.000000" stroke="none" 
	d="
M154.991623,111.972153 
	C153.796494,108.219711 152.642639,104.453529 151.398651,100.717354 
	C147.367020,88.608955 142.989975,76.604843 139.340256,64.383087 
	C135.853622,52.707500 133.110779,40.809799 130.018402,28.619659 
	C133.772278,26.876894 137.548752,25.524200 141.662781,24.022999 
	C151.006470,22.103336 160.012619,20.332180 169.437378,18.523819 
	C174.809021,43.727722 182.650040,68.078888 192.415497,91.841621 
	C195.312408,98.890778 198.109634,105.980904 200.664948,113.600060 
	C195.031052,116.504845 193.680115,120.966988 193.677490,126.343613 
	C193.666916,147.897293 193.556152,169.450943 193.482437,191.004593 
	C190.547623,188.434967 187.612808,185.865341 184.318298,182.684418 
	C183.936218,163.408691 183.962814,144.744019 183.867554,126.079956 
	C183.829056,118.536499 180.143982,114.524956 172.771027,113.542862 
	C166.685028,112.827759 160.838333,112.399956 154.991623,111.972153 
z"/>
<path fill="#E65A97" opacity="1.000000" stroke="none" 
	d="
M228.169189,15.375002 
	C228.141052,15.375462 228.197342,15.374542 228.169189,15.375002 
z"/>
<path fill="#2F2E2E" opacity="1.000000" stroke="none" 
	d="
M310.121338,290.293213 
	C309.915771,291.471924 309.020477,292.979706 309.173981,293.095337 
	C313.557678,296.397949 309.685944,298.492401 307.878448,300.341278 
	C303.179962,305.147400 298.157501,309.636749 293.098145,314.539124 
	C292.469147,315.153992 292.006287,315.482269 291.276001,315.915161 
	C283.685913,310.022797 276.097809,304.318451 269.097473,297.966309 
	C255.683075,285.793976 242.584000,273.273346 229.419449,260.828094 
	C228.388596,259.853577 227.867783,258.339600 227.502136,256.668427 
	C230.930420,256.161224 233.966507,256.061890 237.457886,256.039001 
	C241.609619,256.064484 245.306030,256.013580 249.454742,256.042450 
	C253.271896,256.069885 256.636749,256.017548 260.456238,256.046600 
	C264.607880,256.074615 268.304932,256.021271 272.331238,256.056671 
	C273.104950,256.236359 273.549377,256.327271 273.993805,256.418182 
	C279.324493,261.941742 284.430786,267.706757 290.045227,272.925049 
	C296.433502,278.862579 303.275574,284.311890 310.121338,290.293213 
M303.720795,299.750244 
	C303.902039,299.567657 304.083252,299.385071 304.264496,299.202484 
	C304.159058,299.107269 304.053619,299.012085 303.948181,298.916870 
	C303.807648,299.134247 303.667114,299.351654 303.720795,299.750244 
M306.050995,296.505920 
	C306.050995,296.505920 306.009735,296.553436 306.050995,296.505920 
z"/>
<path fill="#137DC3" opacity="1.000000" stroke="none" 
	d="
M202.022614,114.011734 
	C209.164169,111.995575 215.565369,116.350525 215.909180,123.781647 
	C216.208481,130.250916 216.053802,136.741165 216.111511,144.066803 
	C216.089508,172.711884 216.115341,200.512634 215.952881,228.312302 
	C215.930389,232.162415 217.100830,233.958328 221.030273,233.944153 
	C221.018967,241.579117 221.011002,248.777283 221.003021,255.975433 
	C215.214676,255.911163 209.426346,255.846878 203.263474,255.154968 
	C202.922653,209.300797 202.966354,164.074265 202.949127,118.847755 
	C202.948517,117.235634 202.345093,115.623734 202.022614,114.011734 
z"/>
<path fill="#196CB5" opacity="1.000000" stroke="none" 
	d="
M173.010300,113.830170 
	C180.143982,114.524956 183.829056,118.536499 183.867554,126.079956 
	C183.962814,144.744019 183.936218,163.408691 184.025391,182.537964 
	C183.728760,192.137344 184.456558,201.490891 182.680206,210.341873 
	C181.060913,218.410278 176.725830,225.933655 173.313690,233.900970 
	C172.693130,230.815125 172.051819,227.526138 172.045395,224.235916 
	C171.974472,187.849670 172.002106,151.463257 172.255890,114.537598 
	C172.675903,113.942268 172.843109,113.886223 173.010300,113.830170 
z"/>
<path fill="#1479C1" opacity="1.000000" stroke="none" 
	d="
M201.764893,113.961746 
	C202.345093,115.623734 202.948517,117.235634 202.949127,118.847755 
	C202.966354,164.074265 202.922653,209.300797 202.861053,255.033463 
	C196.129211,253.371216 193.780807,250.335342 193.737610,243.173691 
	C193.634552,226.093994 193.645203,209.013626 193.546173,191.469055 
	C193.556152,169.450943 193.666916,147.897293 193.677490,126.343613 
	C193.680115,120.966988 195.031052,116.504845 200.684662,113.979095 
	C201.163712,113.844147 201.335434,113.877960 201.764893,113.961746 
z"/>
<path fill="#0E89CF" opacity="1.000000" stroke="none" 
	d="
M221.427643,256.045288 
	C221.011002,248.777283 221.018967,241.579117 221.495148,233.946655 
	C226.975876,233.617172 231.988403,233.722000 237.001099,234.241470 
	C237.001724,241.758270 237.002151,248.860428 237.002594,255.962585 
	C233.966507,256.061890 230.930420,256.161224 227.445923,256.341370 
	C225.282440,256.319824 223.567368,256.217499 221.427643,256.045288 
z"/>
<path fill="#1D60A8" opacity="1.000000" stroke="none" 
	d="
M152.000137,113.159126 
	C152.748581,113.106316 153.497025,113.053505 154.920746,113.294106 
	C158.069626,113.771431 160.543259,113.955338 163.016876,114.139244 
	C162.853775,119.176521 162.778854,124.218964 162.484909,129.248596 
	C162.364487,131.308990 161.770935,133.341766 161.198929,135.692535 
	C158.544800,135.863998 156.084351,135.730042 152.978088,135.320816 
	C152.221542,127.750061 152.110840,120.454597 152.000137,113.159126 
z"/>
<path fill="#2C333D" opacity="1.000000" stroke="none" 
	d="
M163.464294,114.094307 
	C160.543259,113.955338 158.069626,113.771431 155.295685,113.323128 
	C154.992920,112.877747 154.990509,112.696762 154.989868,112.243965 
	C160.838333,112.399956 166.685028,112.827759 172.771027,113.542862 
	C172.843109,113.886223 172.675903,113.942268 172.256775,114.078941 
	C169.307129,114.122826 166.609406,114.086098 163.464294,114.094307 
z"/>
<path fill="#2256A3" opacity="1.000000" stroke="none" 
	d="
M126.008667,113.174141 
	C130.701538,113.130341 135.394424,113.086540 140.548676,113.564423 
	C141.011414,121.175713 141.012756,128.265305 141.014099,135.354904 
	C136.002731,135.415192 130.991348,135.475494 125.510880,135.028122 
	C125.364075,127.405022 125.686371,120.289581 126.008667,113.174141 
z"/>
<path fill="#254D9C" opacity="1.000000" stroke="none" 
	d="
M125.593796,113.110016 
	C125.686371,120.289581 125.364075,127.405022 125.056618,134.938782 
	C120.372879,135.418350 115.674301,135.479614 110.506935,135.037323 
	C110.030746,127.409607 110.023354,120.285439 110.015961,113.161270 
	C113.372543,113.062202 116.729126,112.963135 120.540131,112.805130 
	C122.389351,112.846077 123.784142,112.945984 125.593796,113.110016 
z"/>
<path fill="#284695" opacity="1.000000" stroke="none" 
	d="
M109.551941,113.101021 
	C110.023354,120.285439 110.030746,127.409607 110.052734,134.951477 
	C105.367393,135.441498 100.667458,135.513809 95.510231,135.504028 
	C95.039680,128.298721 95.026436,121.175499 95.018845,113.594261 
	C99.712303,113.104424 104.400116,113.072601 109.551941,113.101021 
z"/>
<path fill="#1F5EAA" opacity="1.000000" stroke="none" 
	d="
M141.463440,135.452103 
	C141.012756,128.265305 141.011414,121.175713 141.011703,113.629700 
	C144.372498,113.128296 147.731659,113.083305 151.545471,113.098724 
	C152.110840,120.454597 152.221542,127.750061 152.523071,135.229309 
	C149.113541,135.458496 145.513153,135.503891 141.463440,135.452103 
z"/>
<path fill="#2F3030" opacity="1.000000" stroke="none" 
	d="
M237.000916,233.826843 
	C231.988403,233.722000 226.975876,233.617172 221.498474,233.509827 
	C217.100830,233.958328 215.930389,232.162415 215.952881,228.312302 
	C216.115341,200.512634 216.089508,172.711884 216.191193,144.469147 
	C217.784180,145.429703 219.620178,146.614014 220.784760,148.270401 
	C229.432770,160.570282 237.981323,172.940781 246.461884,185.356873 
	C247.544632,186.942093 248.054443,188.918640 248.471344,191.137939 
	C242.774979,191.289749 238.261856,193.371872 236.598862,198.332413 
	C234.970200,203.190475 236.213120,208.113602 240.301590,211.928864 
	C245.377625,216.665695 250.327942,221.537247 255.518799,226.639938 
	C256.558990,229.598434 261.502533,229.741302 259.587402,233.774658 
	C255.786407,233.728256 252.390900,233.777710 248.548523,233.711609 
	C244.401398,233.672989 240.701157,233.749908 237.000916,233.826843 
z"/>
<path fill="#079CDF" opacity="1.000000" stroke="none" 
	d="
M259.992889,233.870529 
	C261.502533,229.741302 256.558990,229.598434 255.784470,226.277374 
	C256.241974,218.875580 256.496918,212.115234 257.069580,205.381897 
	C257.252686,203.228607 258.277191,201.146866 258.916718,199.032394 
	C263.602722,203.617371 268.288696,208.202347 272.969727,213.491302 
	C272.643616,216.649918 272.066315,219.102356 272.045227,221.559586 
	C271.946747,233.028305 272.001801,244.498337 272.001953,255.967911 
	C268.304932,256.021271 264.607880,256.074615 260.455994,255.580276 
	C259.998413,247.978546 259.995636,240.924545 259.992889,233.870529 
z"/>
<path fill="#0B91D5" opacity="1.000000" stroke="none" 
	d="
M258.769348,198.735199 
	C258.277191,201.146866 257.252686,203.228607 257.069580,205.381897 
	C256.496918,212.115234 256.241974,218.875580 255.598236,225.988037 
	C250.327942,221.537247 245.377625,216.665695 240.301590,211.928864 
	C236.213120,208.113602 234.970200,203.190475 236.598862,198.332413 
	C238.261856,193.371872 242.774979,191.289749 248.492554,191.526367 
	C252.122055,193.806488 255.371994,196.122238 258.769348,198.735199 
z"/>
<path fill="#04A2E5" opacity="1.000000" stroke="none" 
	d="
M272.331238,256.056671 
	C272.001801,244.498337 271.946747,233.028305 272.045227,221.559586 
	C272.066315,219.102356 272.643616,216.649918 273.132935,213.761505 
	C276.429413,216.377274 279.557648,219.426773 282.835632,223.248260 
	C282.990784,234.666702 282.996185,245.313171 283.001556,255.959625 
	C280.294647,256.053986 277.587769,256.148346 274.437317,256.330444 
	C273.549377,256.327271 273.104950,256.236359 272.331238,256.056671 
z"/>
<path fill="#03A7E8" opacity="1.000000" stroke="none" 
	d="
M283.445801,256.042084 
	C282.996185,245.313171 282.990784,234.666702 282.978577,223.557800 
	C287.045471,227.000366 291.119171,230.905396 295.495514,234.939240 
	C297.029938,236.816162 298.547852,238.429977 299.442352,240.336349 
	C302.761230,247.409378 298.239258,255.086868 290.330963,255.935486 
	C288.201752,256.163971 286.037964,256.070343 283.445801,256.042084 
z"/>
<path fill="#0B90D5" opacity="1.000000" stroke="none" 
	d="
M237.001099,234.241470 
	C240.701157,233.749908 244.401398,233.672989 248.549927,234.125854 
	C248.999634,241.757980 249.001038,248.860321 249.002457,255.962677 
	C245.306030,256.013580 241.609619,256.064484 237.457886,256.039001 
	C237.002151,248.860428 237.001724,241.758270 237.001099,234.241470 
z"/>
<path fill="#0996DA" opacity="1.000000" stroke="none" 
	d="
M249.454742,256.042450 
	C249.001038,248.860321 248.999634,241.757980 248.996811,234.241394 
	C252.390900,233.777710 255.786407,233.728256 259.587402,233.774658 
	C259.995636,240.924545 259.998413,247.978546 260.001404,255.498871 
	C256.636749,256.017548 253.271896,256.069885 249.454742,256.042450 
z"/>
<path fill="#303133" opacity="1.000000" stroke="none" 
	d="
M303.623718,299.659668 
	C303.667114,299.351654 303.807648,299.134247 303.948181,298.916870 
	C304.053619,299.012085 304.159058,299.107269 304.264496,299.202484 
	C304.083252,299.385071 303.902039,299.567657 303.623718,299.659668 
z"/>
<path fill="#303133" opacity="1.000000" stroke="none" 
	d="
M306.030365,296.529663 
	C306.009735,296.553436 306.050995,296.505920 306.030365,296.529663 
z"/>
</svg>